<svg width="262" height="58" viewBox="0 0 262 58" fill="none" xmlns="http://www.w3.org/2000/svg">
<path d="M11.7576 34.812C12.0774 37.2183 14.6363 38.7708 17.9149 38.7708C21.1936 38.7708 23.5126 37.2183 23.5126 35.1225C23.5126 33.2595 22.0732 32.1727 18.5547 31.3965L14.7163 30.6202C9.27861 29.4559 6.55976 26.8166 6.55976 22.5473C6.55976 17.2688 11.2778 13.6981 17.9149 13.6981C24.792 13.6981 29.1902 17.1136 29.2701 22.392H23.4326C23.1927 19.9857 21.0336 18.5108 17.9149 18.5108C14.7963 18.5108 12.7971 19.9081 12.7971 22.0815C12.7971 23.8669 14.2365 24.876 17.675 25.6523L21.2735 26.4285C27.191 27.6705 29.8299 30.1545 29.8299 34.5015C29.8299 40.0904 25.1919 43.6611 17.835 43.6611C10.718 43.6611 6.15993 40.4009 6 34.9672L11.7576 34.812ZM43.5041 20.9948H49.2617V24.9536H49.4216C50.3812 22.3144 53.0201 20.5291 55.8988 20.6067C59.1775 20.6067 61.4165 22.2368 62.2162 25.1089H62.3761C63.4956 22.3144 66.2944 20.5291 69.4131 20.6067C73.8912 20.6067 76.85 23.5564 76.85 27.981V42.8849H70.8525V29.5335C70.8525 26.9719 69.4931 25.5746 67.0941 25.5746C64.6951 25.5746 63.1758 27.2824 63.1758 29.7664V43.0401H57.4182V29.3006C57.4182 26.9719 55.9788 25.497 53.6598 25.497C51.3408 25.497 49.6615 27.2824 49.6615 29.7664V42.9625H43.664L43.5041 20.9948ZM103.079 31.9398C103.079 38.9261 99.5603 43.1954 93.8827 43.1954C90.6041 43.1954 88.1252 41.7205 86.8457 39.2365H86.7658V50.104H80.7683V20.9948H86.6858V24.7208H86.8457C88.2051 22.1592 90.924 20.6067 93.8827 20.6843C99.5603 20.7619 103.079 25.0313 103.079 31.9398ZM96.9214 31.9398C96.9214 27.981 94.9223 25.4194 91.8036 25.4194C88.6849 25.4194 86.6858 28.0586 86.6858 31.9398C86.6858 35.8211 88.7649 38.4603 91.8036 38.4603C94.8423 38.4603 96.9214 35.9763 96.9214 31.9398ZM106.437 12.7666H112.515V42.9625H106.517L106.437 12.7666ZM137.224 36.2868C136.585 40.5562 132.506 43.3506 126.989 43.3506C120.112 43.3506 115.873 39.0813 115.873 32.0951C115.873 25.1089 120.112 20.6067 126.749 20.6067C133.226 20.6067 137.384 24.7984 137.384 31.5517V33.3371H121.791V33.7252C121.791 36.9078 123.87 39.0037 127.069 39.0037C129.308 39.0037 131.147 37.9946 131.707 36.2868H137.224ZM121.871 29.6887H131.627C131.547 26.8166 129.628 24.9536 126.829 24.9536C124.03 24.9536 122.031 26.8943 121.871 29.6887ZM149.699 20.6067C155.297 20.6067 158.975 23.4012 159.135 27.5929H153.617C153.457 25.8851 152.018 24.7208 149.699 24.7208C147.54 24.7208 146.101 25.6523 146.101 27.0495C146.101 28.1362 147.06 28.9125 149.139 29.3782L153.378 30.2321C157.936 31.2412 159.695 32.949 159.695 36.2092C159.695 40.4785 155.617 43.273 149.699 43.273C143.782 43.273 140.023 40.4785 139.703 36.2868H145.541C145.861 38.1498 147.38 39.1589 149.859 39.1589C152.338 39.1589 153.697 38.2274 153.697 36.8302C153.697 35.6658 152.898 35.1225 150.819 34.5791L146.66 33.6476C142.422 32.7161 140.183 30.5426 140.183 27.36C140.263 23.3235 144.021 20.6067 149.699 20.6067ZM183.285 36.2868C182.645 40.5562 178.567 43.3506 173.049 43.3506C166.172 43.3506 161.934 39.0813 161.934 32.0951C161.934 25.1089 166.172 20.6067 172.809 20.6067C179.287 20.6067 183.445 24.7984 183.445 31.5517V33.3371H167.851V33.7252C167.851 36.9078 169.93 39.0037 173.129 39.0037C175.368 39.0037 177.207 37.9946 177.767 36.2868H183.285ZM167.931 29.6887H177.687C177.607 26.8166 175.688 24.9536 172.889 24.9536C170.09 24.9536 168.171 26.8943 167.931 29.6887ZM186.723 20.9948H192.481V24.9536H192.561C193.84 22.1592 196.159 20.6843 199.598 20.6843C204.636 20.6843 207.435 23.7893 207.435 28.9125V43.0401H201.437V30.1545C201.437 27.2048 199.998 25.5746 197.199 25.5746C194.4 25.5746 192.561 27.5929 192.561 30.465V43.0401H186.563V20.9948H186.723ZM220.629 20.6067C226.227 20.6067 229.905 23.4012 230.065 27.5929H224.467C224.307 25.8851 222.868 24.7208 220.549 24.7208C218.39 24.7208 216.951 25.6523 216.951 27.0495C216.951 28.1362 217.91 28.9125 219.989 29.3782L224.227 30.3097C228.786 31.3189 230.625 33.0266 230.625 36.2868C230.625 40.5562 226.546 43.3506 220.629 43.3506C214.711 43.3506 210.953 40.5562 210.633 36.3644H216.471C216.791 38.2274 218.31 39.2365 220.789 39.2365C223.268 39.2365 224.627 38.3051 224.627 36.9078C224.627 35.7434 223.828 35.2001 221.828 34.6567L217.67 33.7252C213.432 32.7937 211.193 30.6202 211.193 27.4376C211.193 23.3235 214.951 20.6067 220.629 20.6067ZM254.215 36.2868C253.575 40.5562 249.497 43.3506 243.979 43.3506C237.102 43.3506 232.864 39.0813 232.864 32.0951C232.864 25.1089 237.102 20.6067 243.739 20.6067C250.216 20.6067 254.375 24.7984 254.375 31.5517V33.3371H238.781V33.7252C238.781 36.9078 240.86 39.0037 244.059 39.0037C246.298 39.0037 248.137 37.9946 248.697 36.2868H254.215ZM238.861 29.7664H248.617C248.537 26.8943 246.618 25.0313 243.819 25.0313C241.02 25.0313 239.101 26.8943 238.861 29.7664ZM39.6657 42.8849H33.5083V20.9172H39.6657V42.8849Z" fill="#211F16"/>
<g opacity="0.7">
<path d="M39.042 8.82178H34.082V13.7817H39.042V8.82178Z" fill="#211F16"/>
</g>
<path d="M36.8458 16.0133C38.639 16.0133 40.0926 14.1963 40.0926 11.9549C40.0926 9.7135 38.639 7.89648 36.8458 7.89648C35.0527 7.89648 33.5991 9.7135 33.5991 11.9549C33.5991 14.1963 35.0527 16.0133 36.8458 16.0133Z" fill="#211F16"/>
<path d="M253.76 21.7788C253.44 21.7788 253.12 21.6988 252.88 21.6188C252.56 21.4588 252.32 21.2988 252.16 21.1388C251.92 20.8988 251.76 20.6588 251.68 20.4188C251.52 20.0988 251.52 19.8588 251.52 19.5388C251.52 19.2188 251.6 18.8988 251.68 18.6588C251.76 18.4188 252 18.0988 252.16 17.9388C252.4 17.6988 252.64 17.5388 252.88 17.4588C253.2 17.2988 253.44 17.2988 253.76 17.2988C254.08 17.2988 254.4 17.3788 254.64 17.4588C254.96 17.6188 255.2 17.7788 255.36 17.9388C255.6 18.1788 255.76 18.4188 255.84 18.6588C256 18.9788 256 19.2188 256 19.5388C256 19.8588 255.92 20.1788 255.84 20.4188C255.76 20.7388 255.52 20.9788 255.36 21.1388C255.12 21.3788 254.88 21.5388 254.64 21.6188C254.4 21.6988 254.08 21.7788 253.76 21.7788ZM253.76 21.2188C254.08 21.2188 254.4 21.1388 254.64 20.9788C254.88 20.8188 255.12 20.5788 255.28 20.3388C255.44 20.0988 255.52 19.7788 255.52 19.4588C255.52 19.1388 255.44 18.8188 255.28 18.5788C255.12 18.3388 254.88 18.0988 254.64 17.9388C254.4 17.7788 254.08 17.6988 253.76 17.6988C253.44 17.6988 253.12 17.7788 252.88 17.9388C252.64 18.0988 252.4 18.3388 252.24 18.5788C252.08 18.8188 252 19.1388 252 19.4588C252 19.7788 252.08 20.0988 252.24 20.3388C252.4 20.5788 252.64 20.8188 252.88 20.9788C253.12 21.1388 253.44 21.2188 253.76 21.2188ZM252.96 20.4988V18.2588H253.92C254.16 18.2588 254.32 18.3388 254.48 18.4988C254.64 18.6588 254.72 18.8188 254.72 18.9788C254.72 19.1388 254.72 19.2188 254.64 19.3788C254.56 19.5388 254.48 19.6188 254.32 19.6188L254.72 20.4988H254.32L253.92 19.6988H253.36V20.4988H252.96ZM253.36 19.3788H254C254.08 19.3788 254.16 19.3788 254.24 19.2988C254.32 19.2188 254.32 19.1388 254.32 19.0588C254.32 18.9788 254.32 18.8188 254.24 18.8188C254.16 18.8188 254.08 18.7388 254 18.7388H253.36V19.3788Z" fill="#211F16"/>
</svg>
