<svg preserveAspectRatio="none" overflow="visible" style="display: block;" width="133.5" height="44" viewBox="0 0 133.5 44" fill="none" xmlns="http://www.w3.org/2000/svg">
<g id="Frame">
<path d="M133 0H132.5V44H133H133.5V0H133Z" fill="#D3D2C8"/>
<path id="Vector" opacity="0.7" d="M43.2852 27.2527C40.3686 27.2527 38.0042 24.9024 38.0042 22C38.0042 19.0976 40.3686 16.7332 43.2852 16.7332C46.1876 16.7332 48.5378 19.0976 48.5378 22C48.5378 24.9024 46.1876 27.2527 43.2852 27.2527ZM57.3994 27.2527C54.5253 27.2527 52.6706 25.044 52.6706 22C52.6706 18.9418 54.5395 16.7332 57.4136 16.7332C59.9479 16.7332 61.5194 18.3472 61.7601 20.3718H60.1319C59.9479 19.3807 59.3249 18.0782 57.3853 18.0782C55.1483 18.0782 54.2988 19.9754 54.2988 21.9858C54.2988 24.0105 55.1483 25.9077 57.3853 25.9077C59.3391 25.9077 60.0328 24.6051 60.1319 23.3734H61.7601C61.5336 25.6245 59.9479 27.2527 57.3994 27.2527ZM64.4088 18.5454H62.8372V17.0446H64.4088V18.5454ZM64.3097 27.0545H62.9222V19.8338H64.3097V27.0545ZM69.2227 19.6639C69.4775 19.6639 69.6757 19.678 69.8881 19.7064V21.0372C69.7182 21.0089 69.5908 20.9948 69.4209 20.9948C68.1608 20.9948 67.2547 21.9434 67.2547 23.3167V27.0545H65.8672V19.8338H67.2547V21.2071H67.283C67.6653 20.301 68.2458 19.6639 69.2227 19.6639ZM73.6566 27.2668C71.5046 27.2668 70.1029 25.7094 70.1029 23.4441C70.1029 21.1788 71.5046 19.6214 73.6424 19.6214C75.4972 19.6214 76.7289 20.8249 76.8988 22.453H75.4688C75.398 21.7027 74.9733 20.7682 73.6566 20.7682C72.1134 20.7682 71.547 22.0849 71.547 23.4441C71.547 24.8033 72.1134 26.1059 73.6566 26.1059C74.9875 26.1059 75.398 25.1998 75.4688 24.3786H76.8988C76.7997 26.0351 75.5113 27.2668 73.6566 27.2668ZM82.7638 24.2653V19.8338H84.1513V27.0545H82.7638V26.1484H82.7355C82.3532 26.7005 81.6029 27.2527 80.3569 27.2527C79.0261 27.2527 77.95 26.4881 77.95 24.8316V19.8338H79.3376V24.4494C79.3376 25.4263 79.7623 26.0776 80.81 26.0776C81.9993 26.0776 82.7638 25.3555 82.7638 24.2653ZM87.0954 27.0545H85.7079V16.9314H87.0954V27.0545ZM90.6493 27.2527C89.2051 27.2527 88.2849 26.4174 88.2849 25.1856C88.2849 23.5716 89.5025 23.0902 91.3005 22.7504C92.4332 22.538 93.1269 22.3964 93.1269 21.6885C93.1269 21.1647 92.8155 20.7258 91.7536 20.7258C90.4935 20.7258 90.1113 21.1222 90.0405 22.0849H88.6247C88.6954 20.6974 89.6016 19.6073 91.8102 19.6073C93.2968 19.6073 94.4861 20.2302 94.4861 22.0991V25.4121C94.4861 25.936 94.5569 26.205 94.8259 26.205C94.8684 26.205 94.9109 26.205 94.9958 26.1908V27.0403C94.7551 27.0969 94.5144 27.1253 94.2879 27.1253C93.5942 27.1253 93.2261 26.8563 93.1411 26.0351H93.1128C92.6456 26.7855 91.8244 27.2527 90.6493 27.2527ZM90.9608 26.1342C92.2067 26.1342 93.1269 25.4971 93.1269 24.237V23.2035C92.9004 23.4158 92.2775 23.5716 91.5412 23.7273C90.267 23.9822 89.729 24.3361 89.729 25.0865C89.729 25.7661 90.0971 26.1342 90.9608 26.1342Z" fill="#211F16"/>
</g>
</svg>
